<?xml version="1.0" encoding="UTF-8" standalone="no"?>
<!DOCTYPE svg PUBLIC "-//W3C//DTD SVG 1.1//EN"
 "http://www.w3.org/Graphics/SVG/1.1/DTD/svg11.dtd">
<!-- Generated by graphviz version 10.0.1 (0)
 -->
<!-- Pages: 1 -->
<svg width="442pt" height="188pt"
 viewBox="0.00 0.00 442.20 188.00" xmlns="http://www.w3.org/2000/svg" xmlns:xlink="http://www.w3.org/1999/xlink">
<g id="graph0" class="graph" transform="scale(1 1) rotate(0) translate(4 184)">
<polygon fill="white" stroke="none" points="-4,4 -4,-184 438.2,-184 438.2,4 -4,4"/>
<!-- 0 -->
<g id="node1" class="node">
<title>0</title>
<ellipse fill="none" stroke="black" cx="75.41" cy="-162" rx="75.41" ry="18"/>
<text text-anchor="middle" x="75.41" y="-157.32" font-family="Times,serif" font-size="14.00">core.fetchurl</text>
</g>
<!-- 2 -->
<g id="node3" class="node">
<title>2</title>
<ellipse fill="none" stroke="black" cx="157.41" cy="-18" rx="91.19" ry="18"/>
<text text-anchor="middle" x="157.41" y="-13.32" font-family="Times,serif" font-size="14.00">python.goodbye</text>
</g>
<!-- 0&#45;&gt;2 -->
<g id="edge2" class="edge">
<title>0&#45;&gt;2</title>
<path fill="none" stroke="black" d="M74.23,-143.68C73.74,-124.77 75.37,-94.23 88.41,-72 95.45,-59.99 106.37,-49.75 117.46,-41.58"/>
<polygon fill="black" stroke="black" points="119.23,-44.61 125.49,-36.05 115.27,-38.84 119.23,-44.61"/>
</g>
<!-- 3 -->
<g id="node4" class="node">
<title>3</title>
<ellipse fill="none" stroke="black" cx="157.41" cy="-90" rx="60.15" ry="18"/>
<text text-anchor="middle" x="157.41" y="-85.33" font-family="Times,serif" font-size="14.00">core.hello</text>
</g>
<!-- 0&#45;&gt;3 -->
<g id="edge5" class="edge">
<title>0&#45;&gt;3</title>
<path fill="none" stroke="black" d="M94.84,-144.41C105.16,-135.61 118.02,-124.63 129.39,-114.92"/>
<polygon fill="black" stroke="black" points="131.63,-117.61 136.96,-108.45 127.09,-112.28 131.63,-117.61"/>
</g>
<!-- 1 -->
<g id="node2" class="node">
<title>1</title>
<ellipse fill="none" stroke="black" cx="381.41" cy="-162" rx="52.79" ry="18"/>
<text text-anchor="middle" x="381.41" y="-157.32" font-family="Times,serif" font-size="14.00">core.gcc</text>
</g>
<!-- 3&#45;&gt;2 -->
<g id="edge3" class="edge">
<title>3&#45;&gt;2</title>
<path fill="none" stroke="black" d="M157.41,-71.7C157.41,-64.41 157.41,-55.73 157.41,-47.54"/>
<polygon fill="black" stroke="black" points="160.91,-47.62 157.41,-37.62 153.91,-47.62 160.91,-47.62"/>
</g>
<!-- 4 -->
<g id="node5" class="node">
<title>4</title>
<ellipse fill="none" stroke="black" cx="241.41" cy="-162" rx="69.62" ry="18"/>
<text text-anchor="middle" x="241.41" y="-157.32" font-family="Times,serif" font-size="14.00">core.stdenv</text>
</g>
<!-- 4&#45;&gt;2 -->
<g id="edge1" class="edge">
<title>4&#45;&gt;2</title>
<path fill="none" stroke="black" d="M242.12,-143.66C242.11,-124.72 239.73,-94.16 226.41,-72 219.23,-60.07 208.28,-49.85 197.2,-41.67"/>
<polygon fill="black" stroke="black" points="199.4,-38.94 189.18,-36.14 195.42,-44.7 199.4,-38.94"/>
</g>
<!-- 4&#45;&gt;3 -->
<g id="edge4" class="edge">
<title>4&#45;&gt;3</title>
<path fill="none" stroke="black" d="M221.5,-144.41C210.83,-135.52 197.5,-124.41 185.77,-114.63"/>
<polygon fill="black" stroke="black" points="188.26,-112.15 178.34,-108.44 183.78,-117.53 188.26,-112.15"/>
</g>
</g>
</svg>
