<?xml version="1.0" encoding="UTF-8" standalone="no"?>
<!DOCTYPE svg PUBLIC "-//W3C//DTD SVG 1.1//EN"
 "http://www.w3.org/Graphics/SVG/1.1/DTD/svg11.dtd">
<!-- Generated by graphviz version 10.0.1 (0)
 -->
<!-- Pages: 1 -->
<svg width="429pt" height="476pt"
 viewBox="0.00 0.00 429.37 476.00" xmlns="http://www.w3.org/2000/svg" xmlns:xlink="http://www.w3.org/1999/xlink">
<g id="graph0" class="graph" transform="scale(1 1) rotate(0) translate(4 472)">
<polygon fill="white" stroke="none" points="-4,4 -4,-472 425.37,-472 425.37,4 -4,4"/>
<!-- 0 -->
<g id="node1" class="node">
<title>0</title>
<ellipse fill="none" stroke="black" cx="62.64" cy="-162" rx="60.15" ry="18"/>
<text text-anchor="middle" x="62.64" y="-157.32" font-family="Times,serif" font-size="14.00">core.hello</text>
</g>
<!-- 1 -->
<g id="node2" class="node">
<title>1</title>
<ellipse fill="none" stroke="black" cx="189.64" cy="-90" rx="51.21" ry="18"/>
<text text-anchor="middle" x="189.64" y="-85.33" font-family="Times,serif" font-size="14.00">core.nix</text>
</g>
<!-- 6 -->
<g id="node7" class="node">
<title>6</title>
<ellipse fill="none" stroke="black" cx="228.64" cy="-18" rx="192.73" ry="18"/>
<text text-anchor="middle" x="228.64" y="-13.32" font-family="Times,serif" font-size="14.00">python.python3Packages.python&#45;nix</text>
</g>
<!-- 1&#45;&gt;6 -->
<g id="edge8" class="edge">
<title>1&#45;&gt;6</title>
<path fill="none" stroke="black" d="M199.08,-72.05C203.43,-64.26 208.68,-54.82 213.56,-46.08"/>
<polygon fill="black" stroke="black" points="216.47,-48.04 218.28,-37.6 210.36,-44.63 216.47,-48.04"/>
</g>
<!-- 2 -->
<g id="node3" class="node">
<title>2</title>
<ellipse fill="none" stroke="black" cx="150.64" cy="-450" rx="150.64" ry="18"/>
<text text-anchor="middle" x="150.64" y="-445.32" font-family="Times,serif" font-size="14.00">core.phase0.bootstrap&#45;tools</text>
</g>
<!-- 3 -->
<g id="node4" class="node">
<title>3</title>
<ellipse fill="none" stroke="black" cx="150.64" cy="-378" rx="108.55" ry="18"/>
<text text-anchor="middle" x="150.64" y="-373.32" font-family="Times,serif" font-size="14.00">core.phase0.stdenv</text>
</g>
<!-- 2&#45;&gt;3 -->
<g id="edge4" class="edge">
<title>2&#45;&gt;3</title>
<path fill="none" stroke="black" d="M150.64,-431.7C150.64,-424.41 150.64,-415.73 150.64,-407.54"/>
<polygon fill="black" stroke="black" points="154.14,-407.62 150.64,-397.62 147.14,-407.62 154.14,-407.62"/>
</g>
<!-- 4 -->
<g id="node5" class="node">
<title>4</title>
<ellipse fill="none" stroke="black" cx="150.64" cy="-306" rx="108.55" ry="18"/>
<text text-anchor="middle" x="150.64" y="-301.32" font-family="Times,serif" font-size="14.00">core.phase1.stdenv</text>
</g>
<!-- 3&#45;&gt;4 -->
<g id="edge5" class="edge">
<title>3&#45;&gt;4</title>
<path fill="none" stroke="black" d="M150.64,-359.7C150.64,-352.41 150.64,-343.73 150.64,-335.54"/>
<polygon fill="black" stroke="black" points="154.14,-335.62 150.64,-325.62 147.14,-335.62 154.14,-335.62"/>
</g>
<!-- 7 -->
<g id="node8" class="node">
<title>7</title>
<ellipse fill="none" stroke="black" cx="150.64" cy="-234" rx="69.62" ry="18"/>
<text text-anchor="middle" x="150.64" y="-229.32" font-family="Times,serif" font-size="14.00">core.stdenv</text>
</g>
<!-- 4&#45;&gt;7 -->
<g id="edge9" class="edge">
<title>4&#45;&gt;7</title>
<path fill="none" stroke="black" d="M150.64,-287.7C150.64,-280.41 150.64,-271.73 150.64,-263.54"/>
<polygon fill="black" stroke="black" points="154.14,-263.62 150.64,-253.62 147.14,-263.62 154.14,-263.62"/>
</g>
<!-- 5 -->
<g id="node6" class="node">
<title>5</title>
<ellipse fill="none" stroke="black" cx="268.64" cy="-162" rx="90.14" ry="18"/>
<text text-anchor="middle" x="268.64" y="-157.32" font-family="Times,serif" font-size="14.00">python.python3</text>
</g>
<!-- 5&#45;&gt;1 -->
<g id="edge3" class="edge">
<title>5&#45;&gt;1</title>
<path fill="none" stroke="black" d="M249.52,-144.05C239.5,-135.18 227.08,-124.17 216.15,-114.49"/>
<polygon fill="black" stroke="black" points="218.71,-112.08 208.91,-108.07 214.07,-117.32 218.71,-112.08"/>
</g>
<!-- 5&#45;&gt;6 -->
<g id="edge7" class="edge">
<title>5&#45;&gt;6</title>
<path fill="none" stroke="black" d="M265.84,-143.72C262.69,-125.63 257.05,-96.5 249.64,-72 247.15,-63.76 243.93,-55 240.76,-47.02"/>
<polygon fill="black" stroke="black" points="244.01,-45.72 236.97,-37.81 237.53,-48.39 244.01,-45.72"/>
</g>
<!-- 7&#45;&gt;0 -->
<g id="edge1" class="edge">
<title>7&#45;&gt;0</title>
<path fill="none" stroke="black" d="M129.79,-216.41C118.42,-207.37 104.17,-196.03 91.72,-186.13"/>
<polygon fill="black" stroke="black" points="94.23,-183.66 84.23,-180.17 89.88,-189.14 94.23,-183.66"/>
</g>
<!-- 7&#45;&gt;1 -->
<g id="edge2" class="edge">
<title>7&#45;&gt;1</title>
<path fill="none" stroke="black" d="M153.53,-215.75C156.74,-197.68 162.43,-168.56 169.64,-144 172.12,-135.57 175.3,-126.56 178.4,-118.41"/>
<polygon fill="black" stroke="black" points="181.55,-119.96 181.94,-109.37 175.04,-117.41 181.55,-119.96"/>
</g>
<!-- 7&#45;&gt;5 -->
<g id="edge6" class="edge">
<title>7&#45;&gt;5</title>
<path fill="none" stroke="black" d="M177.71,-216.94C193.53,-207.56 213.72,-195.58 231.05,-185.3"/>
<polygon fill="black" stroke="black" points="232.76,-188.36 239.58,-180.24 229.19,-182.33 232.76,-188.36"/>
</g>
</g>
</svg>
